<svg xmlns="http://www.w3.org/2000/svg" viewBox="0 0 64 64" role="img" aria-labelledby="title desc">
  <title id="title">Cross Canon favicon</title>
  <desc id="desc">A cream cross shaped like a book spine on an oxblood field.</desc>
  <rect width="64" height="64" rx="14" fill="#8f3526"/>
  <path d="M22 13h20a5 5 0 0 1 5 5v28a8 8 0 0 0-5-2H22a5 5 0 0 1-5-5V18a5 5 0 0 1 5-5Z" fill="#fbfaf7" opacity=".18"/>
  <path d="M28 14h8v36h-8z" fill="#fbfaf7"/>
  <path d="M17 27h30v8H17z" fill="#fbfaf7"/>
  <path d="M38 17h4a2 2 0 0 1 2 2v25.5a10.6 10.6 0 0 0-5.2-1.5H38Z" fill="#fbfaf7" opacity=".5"/>
  <path d="M21 48h22c2.5 0 4 1.3 4 3.5S45.5 55 43 55H21c-2.5 0-4-1.3-4-3.5S18.5 48 21 48Z" fill="#fbfaf7" opacity=".88"/>
  <path d="M22 51.5h20" stroke="#8f3526" stroke-width="2" stroke-linecap="round" opacity=".38"/>
</svg>
